<svg width="142" height="65" fill="none" xmlns="http://www.w3.org/2000/svg"><path fill-rule="evenodd" clip-rule="evenodd" d="M48.3 0L.064 60.257l77.06 4.415-1.748-3.921-62.39-6.253L50.144 4.136 48.3 0zm20.823 46.634c.843-1.846 1.265-3.988 1.265-6.426v-1.384c-.012-2.427-.445-4.552-1.3-6.375-.854-1.834-2.067-3.235-3.64-4.204-1.56-.98-3.355-1.47-5.383-1.47s-3.828.496-5.4 1.487c-1.56.98-2.774 2.398-3.64 4.256-.855 1.857-1.282 3.999-1.282 6.425v1.402c.012 2.38.444 4.483 1.299 6.306.866 1.823 2.085 3.23 3.657 4.221 1.584.98 3.384 1.47 5.4 1.47 2.04 0 3.84-.49 5.401-1.47 1.572-.991 2.78-2.404 3.623-4.238zm-4.631-14.065c1.048 1.47 1.572 3.583 1.572 6.34v1.299c0 2.803-.518 4.933-1.555 6.392-1.026 1.458-2.495 2.187-4.41 2.187-1.89 0-3.372-.746-4.443-2.239-1.06-1.492-1.59-3.606-1.59-6.34v-1.435c.024-2.678.56-4.746 1.607-6.204 1.06-1.47 2.524-2.205 4.392-2.205 1.915 0 3.39.735 4.427 2.205zm28.053 25.55h4.102l.222-9.571h-3.162v-21.43H78.02l-.65 11.04c-.17 2.312-.552 4.386-1.145 6.22-.592 1.823-1.384 3.213-2.375 4.17h-2l.137 9.57h4.17V52h16.389v6.118zM89.4 48.547H78.736c1.687-2.61 2.683-6.255 2.991-10.938l.41-7.006H89.4v17.944zm14.792-7.212h2.94L114.737 52h5.195l-9.297-12.971 8.545-11.912h-5.298l-7.314 10.46h-2.376v-10.46h-4.306V52h4.306V41.336zm37.35-14.219h-4.323l-10.921 17.74v-17.74h-4.324V52h4.324l10.921-17.722V52h4.323V27.117z" fill="#224855"/></svg>