<svg width="137" height="65" fill="none" xmlns="http://www.w3.org/2000/svg"><path fill-rule="evenodd" clip-rule="evenodd" d="M48.236 0L0 60.257l77.059 4.415-1.748-3.921-62.389-6.253L50.08 4.136 48.236 0zm19.616 44.94c.794-1.74 1.192-3.76 1.192-6.058v-1.305c-.01-2.288-.419-4.292-1.225-6.01-.805-1.73-1.95-3.051-3.432-3.965-1.471-.923-3.163-1.385-5.075-1.385-1.913 0-3.61.467-5.092 1.402-1.472.924-2.616 2.26-3.432 4.012-.806 1.75-1.209 3.77-1.209 6.059v1.32c.01 2.246.419 4.228 1.225 5.947.816 1.718 1.965 3.045 3.448 3.98 1.493.923 3.19 1.385 5.092 1.385 1.923 0 3.62-.462 5.092-1.386 1.482-.934 2.62-2.266 3.416-3.996zm-4.367-13.26c.988 1.385 1.482 3.378 1.482 5.977v1.225c0 2.642-.489 4.651-1.466 6.026-.967 1.375-2.353 2.063-4.157 2.063-1.784 0-3.18-.704-4.19-2.111-.999-1.407-1.498-3.4-1.498-5.978v-1.354c.021-2.524.526-4.474 1.514-5.849 1-1.385 2.38-2.078 4.142-2.078 1.804 0 3.195.693 4.173 2.078zm26.45 24.089h3.867l.21-9.024H91.03V26.54H76.239l-.613 10.41c-.16 2.18-.52 4.135-1.079 5.864-.559 1.72-1.305 3.03-2.24 3.932h-1.885l.129 9.024h3.931V50h15.453v5.769zm-2.965-9.024H76.916c1.59-2.46 2.53-5.897 2.82-10.312l.386-6.607h6.848v16.92zm13.947-6.8h2.771L110.859 50h4.898l-8.766-12.23 8.057-11.23h-4.995l-6.897 9.86h-2.239v-9.86h-4.06V50h4.06V39.945zm35.216-13.406h-4.077L121.76 43.265V26.539h-4.077V50h4.077l10.296-16.71V50h4.077V26.54z" fill="#fff"/></svg>